HIERARCHY
ROOT __0
{
	OFFSET 0.0 0.0 0.0
	CHANNELS 0
	JOINT B_spine
	{
		OFFSET 0.000000 12.574406 0.000015
		CHANNELS 6 Xposition Yposition Zposition Xrotation Yrotation Zrotation
		JOINT B_chest
		{
			OFFSET 0.000000 13.272701 -1.659562
			CHANNELS 3 Xrotation Yrotation Zrotation
			JOINT B_neck
			{
				OFFSET 0.000000 26.692867 -4.569908
				CHANNELS 3 Xrotation Yrotation Zrotation
				JOINT B_head
				{
					OFFSET 0.000000 7.403320 0.307610
					CHANNELS 3 Xrotation Yrotation Zrotation
					JOINT B_jaw
					{
						OFFSET -0.000000 0.000000 0.000000
						CHANNELS 3 Xrotation Yrotation Zrotation
						End Site
						{
							OFFSET -0.000000 0.000984 0.009950
						}
					}
				}
			}
			JOINT B_shoulder_L
			{
				OFFSET 0.000000 18.756275 -3.785036
				CHANNELS 3 Xrotation Yrotation Zrotation
				JOINT B_upperArm_L
				{
					OFFSET 16.013109 -0.237339 -2.397884
					CHANNELS 3 Xrotation Yrotation Zrotation
					JOINT B_forearm_L
					{
						OFFSET 23.352011 -1.609638 0.547266
						CHANNELS 3 Xrotation Yrotation Zrotation
						JOINT B_hand_L
						{
							OFFSET 19.551891 -1.216175 0.514485
							CHANNELS 3 Xrotation Yrotation Zrotation
							JOINT B_indexFinger01_L
							{
								OFFSET 12.844997 0.199680 4.724085
								CHANNELS 3 Xrotation Yrotation Zrotation
								JOINT B_indexFinger02_L
								{
									OFFSET 4.611313 -0.276707 0.722940
									CHANNELS 3 Xrotation Yrotation Zrotation
									JOINT B_indexFinger03_L
									{
										OFFSET 3.373116 -0.582455 0.539038
										CHANNELS 3 Xrotation Yrotation Zrotation
										End Site
										{
											OFFSET 3.390709 -0.544979 0.462370
										}
									}
								}
							}
							JOINT B_middleFinger01_L
							{
								OFFSET 13.080090 0.604294 2.004760
								CHANNELS 3 Xrotation Yrotation Zrotation
								JOINT B_middleFinger02_L
								{
									OFFSET 4.853409 -0.095066 0.410151
									CHANNELS 3 Xrotation Yrotation Zrotation
									JOINT B_middleFinger03_L
									{
										OFFSET 3.509399 -0.643703 0.386323
										CHANNELS 3 Xrotation Yrotation Zrotation
										End Site
										{
											OFFSET 3.507095 -0.680397 0.341829
										}
									}
								}
							}
							JOINT B_pinky01_L
							{
								OFFSET 12.286716 -0.507381 -3.084042
								CHANNELS 3 Xrotation Yrotation Zrotation
								JOINT B_pinky02_L
								{
									OFFSET 3.831200 -0.083115 -0.068955
									CHANNELS 3 Xrotation Yrotation Zrotation
									JOINT B_pinky03_L
									{
										OFFSET 3.179817 -0.497776 0.099569
										CHANNELS 3 Xrotation Yrotation Zrotation
										End Site
										{
											OFFSET 3.153145 -0.628899 0.176385
										}
									}
								}
							}
							JOINT B_ringFinger01_L
							{
								OFFSET 12.938000 0.044765 -0.504557
								CHANNELS 3 Xrotation Yrotation Zrotation
								JOINT B_ringFinger02_L
								{
									OFFSET 4.517715 -0.096210 0.067697
									CHANNELS 3 Xrotation Yrotation Zrotation
									JOINT B_ringFinger03_L
									{
										OFFSET 3.418602 -0.535187 0.254205
										CHANNELS 3 Xrotation Yrotation Zrotation
										End Site
										{
											OFFSET 3.395927 -0.691742 0.164467
										}
									}
								}
							}
							JOINT B_thumb01_L
							{
								OFFSET 4.439804 -1.046291 4.501313
								CHANNELS 3 Xrotation Yrotation Zrotation
								JOINT B_thumb02_L
								{
									OFFSET 3.592289 -1.518921 2.654676
									CHANNELS 3 Xrotation Yrotation Zrotation
									JOINT B_thumb03_L
									{
										OFFSET 2.840012 -1.113506 1.758117
										CHANNELS 3 Xrotation Yrotation Zrotation
										End Site
										{
											OFFSET 2.590385 -1.118584 2.106005
										}
									}
								}
							}
						}
					}
				}
			}
			JOINT B_shoulder_R
			{
				OFFSET -0.000000 18.756275 -3.785036
				CHANNELS 3 Xrotation Yrotation Zrotation
				JOINT B_upperArm_R
				{
					OFFSET -16.013090 -0.237328 -2.397883
					CHANNELS 3 Xrotation Yrotation Zrotation
					JOINT B_forearm_R
					{
						OFFSET -23.351896 -1.608902 0.555032
						CHANNELS 3 Xrotation Yrotation Zrotation
						JOINT B_hand_R
						{
							OFFSET -19.552006 -1.216946 0.506624
							CHANNELS 3 Xrotation Yrotation Zrotation
							JOINT B_indexFinger01_R
							{
								OFFSET -12.845001 0.199692 4.724183
								CHANNELS 3 Xrotation Yrotation Zrotation
								JOINT B_indexFinger02_R
								{
									OFFSET -4.611290 -0.276722 0.722843
									CHANNELS 3 Xrotation Yrotation Zrotation
									JOINT B_indexFinger03_R
									{
										OFFSET -3.373108 -0.582436 0.539036
										CHANNELS 3 Xrotation Yrotation Zrotation
										End Site
										{
											OFFSET -3.390701 -0.544983 0.462362
										}
									}
								}
							}
							JOINT B_middleFinger01_R
							{
								OFFSET -13.080093 0.604294 2.004760
								CHANNELS 3 Xrotation Yrotation Zrotation
								JOINT B_middleFinger02_R
								{
									OFFSET -4.853394 -0.095074 0.410148
									CHANNELS 3 Xrotation Yrotation Zrotation
									JOINT B_middleFinger03_R
									{
										OFFSET -3.509392 -0.643688 0.386422
										CHANNELS 3 Xrotation Yrotation Zrotation
										End Site
										{
											OFFSET -3.507095 -0.680401 0.341822
										}
									}
								}
							}
							JOINT B_pinky01_R
							{
								OFFSET -12.286697 -0.507374 -3.083941
								CHANNELS 3 Xrotation Yrotation Zrotation
								JOINT B_pinky02_R
								{
									OFFSET -3.831169 -0.083084 -0.069060
									CHANNELS 3 Xrotation Yrotation Zrotation
									JOINT B_pinky03_R
									{
										OFFSET -3.179802 -0.497787 0.099573
										CHANNELS 3 Xrotation Yrotation Zrotation
										End Site
										{
											OFFSET -3.153130 -0.628899 0.176378
										}
									}
								}
							}
							JOINT B_ringFinger01_R
							{
								OFFSET -12.937981 0.044788 -0.504458
								CHANNELS 3 Xrotation Yrotation Zrotation
								JOINT B_ringFinger02_R
								{
									OFFSET -4.517723 -0.096233 0.067600
									CHANNELS 3 Xrotation Yrotation Zrotation
									JOINT B_ringFinger03_R
									{
										OFFSET -3.418488 -0.535164 0.254199
										CHANNELS 3 Xrotation Yrotation Zrotation
										End Site
										{
											OFFSET -3.395813 -0.691719 0.164456
										}
									}
								}
							}
							JOINT B_thumb01_R
							{
								OFFSET -4.439884 -1.046288 4.501419
								CHANNELS 3 Xrotation Yrotation Zrotation
								JOINT B_thumb02_R
								{
									OFFSET -3.592213 -1.518921 2.654576
									CHANNELS 3 Xrotation Yrotation Zrotation
									JOINT B_thumb03_R
									{
										OFFSET -2.839989 -1.113472 1.758106
										CHANNELS 3 Xrotation Yrotation Zrotation
										End Site
										{
											OFFSET -2.590363 -1.118580 2.105967
										}
									}
								}
							}
						}
					}
				}
			}
		}
	}
	JOINT B_thigh_L
	{
		OFFSET 9.695101 -5.446954 0.204140
		CHANNELS 6 Xposition Yposition Zposition Xrotation Yrotation Zrotation
		JOINT B_shin_L
		{
			OFFSET -0.933000 -40.742374 5.418079
			CHANNELS 3 Xrotation Yrotation Zrotation
			JOINT B_foot_L
			{
				OFFSET 0.063301 -38.807560 -0.070968
				CHANNELS 3 Xrotation Yrotation Zrotation
				JOINT B_toe_L
				{
					OFFSET -0.000201 -7.386925 15.592754
					CHANNELS 3 Xrotation Yrotation Zrotation
					End Site
					{
						OFFSET -0.000299 1.871780 17.152178
					}
				}
			}
		}
	}
	JOINT B_thigh_R
	{
		OFFSET -9.695101 -5.446981 0.204044
		CHANNELS 6 Xposition Yposition Zposition Xrotation Yrotation Zrotation
		JOINT B_shin_R
		{
			OFFSET 0.932899 -40.742355 5.418177
			CHANNELS 3 Xrotation Yrotation Zrotation
			JOINT B_foot_R
			{
				OFFSET -0.063201 -38.807560 -0.070934
				CHANNELS 3 Xrotation Yrotation Zrotation
				JOINT B_toe_R
				{
					OFFSET 0.000201 -7.387001 15.592752
					CHANNELS 3 Xrotation Yrotation Zrotation
					End Site
					{
						OFFSET 0.000337 1.871780 17.152210
					}
				}
			}
		}
	}
}
MOTION
Frames: 4
Frame Time: 0.016667
0.000000 12.574439 0.000011 7.206969 4.932515 3.631790 -3.944601 1.372502 -0.902073 6.881179 0.993866 -2.958157 4.612045 3.641099 2.421086 10.285520 -0.000001 0.000002 0.733606 5.070048 6.195670 29.460402 -20.147859 -58.444344 50.304224 -56.595938 36.805017 11.443354 8.658504 29.941832 -9.094911 -2.081511 16.016447 -5.191876 2.696735 4.288181 -3.979871 2.002649 -3.795180 -5.043709 -2.308765 12.854869 -3.464361 2.226114 6.976735 -2.094711 0.666146 -7.442487 0.783371 0.888238 4.971106 -0.461118 1.269590 1.385200 -0.507876 -1.270233 -15.014615 -1.171884 -2.418524 8.319160 -1.340204 2.132954 4.101799 -0.653605 -0.661448 -11.661576 -5.222302 -4.290682 -5.336487 0.716113 9.339402 0.611819 -0.447876 5.231945 0.066948 0.109599 0.015054 -0.732832 32.598567 8.497718 54.812985 -75.191422 97.627350 79.337408 -1.569019 -14.211854 -31.117143 -10.903604 9.239177 -16.789037 -4.558428 -2.184747 0.158652 -3.033639 -0.923608 11.613928 -6.396275 10.280115 -6.424082 -2.697837 -1.393354 1.070521 -1.626355 0.187737 14.342965 -3.883281 11.604576 1.991918 -0.374099 -0.345311 7.613530 -0.599524 1.830161 20.507935 -3.668566 10.205997 -2.242460 -0.842747 -1.220651 4.570453 -0.474601 1.373696 17.770960 -20.900874 -0.218762 -9.839791 2.103328 -14.353943 -1.170319 1.055451 -10.555506 -0.757887 9.695098 -5.446950 0.204141 -16.231284 9.644429 13.486239 42.055896 5.691195 -5.036160 -11.157919 1.993282 -3.409468 -10.052350 -0.000004 -0.000003 -9.695100 -5.446958 0.204042 4.363565 3.455436 4.171988 23.094502 -8.510014 -0.129780 -17.321780 -10.291055 7.072908 -10.774697 0.000008 0.000004 
-0.000000 12.574438 0.000011 6.355085 4.770576 3.704475 -2.708029 1.423822 -1.284058 6.337096 0.896914 -2.693178 4.987829 3.584753 2.039947 10.285522 -0.000001 0.000002 0.801141 4.767390 7.010013 27.535045 -21.665905 -60.901457 50.078759 -55.296935 36.886863 12.709158 4.945646 31.980124 -8.461747 0.497414 15.756680 -4.904867 2.474135 2.308851 -4.024471 2.040613 -3.467968 -4.446700 0.320008 12.393531 -3.271317 2.044763 5.140201 -2.100813 0.674425 -7.366096 1.504574 3.500517 4.368122 -0.417775 0.973588 -1.522366 -0.507908 -1.289011 -15.193308 -0.509385 0.248022 7.827131 -1.185358 1.874533 1.560162 -0.653621 -0.663789 -11.673869 -5.222298 -4.290686 -5.336484 0.721336 9.356995 0.613730 -0.444803 5.241645 0.068040 0.120389 -1.162818 -0.162792 31.970599 8.697863 54.587213 -102.989287 97.465249 107.063181 -1.845848 -14.630948 -29.847650 -10.961775 9.974095 -16.035047 -4.568194 -2.192031 0.085933 -3.069169 -0.969810 11.303708 -6.587373 11.065085 -5.921450 -2.606963 -1.286547 2.016417 -1.631433 0.164931 14.222424 -4.051543 12.239241 1.713766 -0.379129 -0.143303 9.594180 -0.599351 1.829469 20.507718 -3.816473 10.719500 -2.334573 -0.753078 -1.006773 6.530867 -0.474679 1.373134 17.766546 -20.919558 -0.384231 -9.954257 2.130167 -14.444131 -1.177403 1.105918 -10.734547 -0.779287 9.695098 -5.446949 0.204142 -16.737942 9.614272 13.116852 41.373485 6.769953 -5.088385 -11.146951 2.981750 -3.592044 -9.481868 -0.000003 0.000004 -9.695098 -5.446959 0.204042 4.440034 4.473299 4.571048 21.886038 -8.668564 -0.530477 -20.100840 -11.160996 6.425934 -6.836440 0.000004 -0.000016 
-0.000000 12.574439 0.000011 5.518547 5.082246 3.976613 -1.522911 1.637598 -1.932611 5.421521 0.821118 -2.749051 5.303511 3.649037 1.559105 10.285519 -0.000000 0.000002 0.824494 4.702645 8.009066 25.549543 -23.417198 -62.747022 51.488155 -55.020152 38.860450 14.720992 1.798769 35.004566 -7.398282 4.040656 14.863219 -4.577746 2.203444 0.082191 -4.055285 2.085927 -3.218424 -3.490908 3.855316 11.099064 -2.964375 1.724061 2.032837 -2.116760 0.696510 -7.165750 2.368021 6.474143 2.350762 -0.381402 0.543964 -5.720190 -0.507934 -1.307785 -15.371824 0.389570 3.549593 5.986924 -0.943734 1.451724 -2.612975 -0.654035 -0.667293 -11.685953 -5.222298 -4.290684 -5.336485 0.735481 9.404752 0.618909 -0.436854 5.267685 0.071398 0.277865 -2.015039 -1.375658 30.994039 9.271963 54.622621 -107.151659 96.949863 110.831171 -2.705330 -15.943417 -28.565583 -10.851618 9.951289 -15.186656 -4.572970 -2.204310 0.019780 -3.078590 -0.980286 11.225502 -6.561807 11.056807 -5.378169 -2.532003 -1.197023 2.799332 -1.644622 0.156058 14.067369 -3.989265 12.175700 1.420397 -0.384732 0.083456 11.822240 -0.598801 1.827897 20.506844 -3.808439 10.690410 -2.345917 -0.665720 -0.820712 8.294594 -0.474719 1.371363 17.752654 -20.951947 -0.745556 -10.176289 2.190513 -14.651743 -1.195498 1.127488 -10.812778 -0.788244 9.695098 -5.446949 0.204141 -16.395651 9.479123 12.120621 39.599487 8.195222 -4.959397 -11.165747 4.342221 -3.497155 -8.214424 -0.000010 0.000017 -9.695098 -5.446959 0.204042 3.644079 4.130854 3.934924 21.459689 -8.179555 -0.446478 -19.795932 -10.664141 6.043606 -6.525406 -0.000053 0.000022 
0.000000 12.574439 0.000011 5.026646 5.649897 4.229319 -0.535514 1.946840 -2.625087 4.615313 0.824922 -3.079781 5.477916 3.883708 1.083235 10.285520 -0.000001 0.000002 0.713432 5.219660 8.269457 24.046656 -25.001122 -63.671652 53.226886 -55.012478 41.062711 16.372460 0.726943 37.659877 -5.987662 7.159280 12.615118 -4.267345 1.913035 -2.142770 -4.103064 2.119008 -2.879294 -2.341747 6.897640 8.674341 -2.630805 1.335991 -1.587639 -2.139055 0.728233 -6.884682 3.227315 8.997153 -0.409218 -0.396493 0.027969 -10.784733 -0.507648 -1.298278 -15.283414 1.316202 6.595492 3.378332 -0.732083 0.996992 -6.734099 -0.656626 -0.656954 -11.589962 -5.222297 -4.290684 -5.336487 0.756255 9.475127 0.626583 -0.425004 5.305330 0.075748 0.529420 -2.703871 -3.264949 30.490723 10.513074 55.697351 -110.098087 96.480479 113.628612 -3.711858 -18.588189 -28.018025 -10.614636 9.879468 -14.621763 -4.582291 -2.224259 -0.090570 -3.085849 -0.988500 11.165644 -6.509710 10.906951 -5.061703 -2.546328 -1.185081 2.659964 -1.650028 0.152477 14.001703 -3.830272 12.010621 0.894220 -0.396994 0.242491 13.355980 -0.598230 1.825969 20.505059 -3.785506 10.623490 -2.353858 -0.620035 -0.709334 9.296236 -0.474801 1.368213 17.728357 -20.960416 -1.099863 -10.323670 2.254314 -14.882359 -1.219290 1.160170 -10.931025 -0.801947 9.695098 -5.446949 0.204141 -15.772990 9.192968 10.893884 37.301856 9.622975 -4.786105 -11.213992 5.546500 -3.187808 -6.923250 -0.000010 0.000027 -9.695098 -5.446959 0.204042 2.739237 3.299702 2.825730 21.189685 -7.182688 -0.325430 -18.917973 -9.356062 5.946488 -6.709679 -0.000071 -0.000007 
